<svg width="44" height="43" viewBox="0 0 44 43" fill="none" xmlns="http://www.w3.org/2000/svg">
<path d="M22.271 0.0671927C26.5666 -0.277995 30.8466 0.730075 34.5689 3.00587L35.888 3.81233L30.0476 12.7872L28.7442 11.996C26.8079 10.8199 24.5394 10.3953 22.318 10.7741L22.2741 0.0641379L22.271 0.0671927Z" fill="#E31837"/>
<path d="M42.4079 11.9778L41.894 10.8506L32.4505 22.868L32.391 22.9413C32.2124 23.369 31.9993 23.7814 31.7581 24.1724H43.423C44.1249 21.3498 44.1938 18.3317 43.5014 15.3105C43.2382 14.1711 42.8716 13.05 42.411 11.9778" fill="#E31837"/>
<path d="M27.9265 23.9157C25.5766 24.4289 23.2361 22.9809 22.7097 20.6868L22.4215 19.4282C21.8951 17.1372 23.3802 14.8552 25.7301 14.342L41.8944 10.8535L32.3945 22.9442L27.9265 23.9187V23.9157Z" fill="#F7901E"/>
<path d="M22.4121 31.5433C22.6032 31.5127 22.7944 31.4791 22.9855 31.4363C25.9276 30.7948 28.3026 28.7665 29.4117 26.1211L29.6937 25.4062H40.7164C39.6197 33.205 33.676 39.9011 25.3448 41.7187C24.3641 41.9325 23.3865 42.07 22.4121 42.1372V31.5433Z" fill="#E31837"/>
<path d="M21.0048 40.7566C11.4203 41.34 2.52513 35.0503 0.366342 25.6294C0.203415 24.9116 0.0812195 24.1967 -0.000244141 23.4819H10.9472C12.047 27.9174 16.4303 30.7859 21.0048 30.1749V40.7566Z" fill="#E31837"/>
<path d="M16.6658 2.47727C18.1071 2.16263 19.5609 2.00684 21.0022 2.00684V12.5457C20.3442 12.5457 19.68 12.616 19.022 12.7596C14.5008 13.7463 11.5179 17.8794 11.9629 22.2629H1.13132C0.708335 13.0467 7.1189 4.55756 16.6658 2.47727Z" fill="#E31837"/>
</svg>
