<?xml version="1.0" encoding="UTF-8"?>
<!-- Generator: Adobe Illustrator 18.1.1, SVG Export Plug-In . SVG Version: 6.00 Build 0) -->
<svg xmlns="http://www.w3.org/2000/svg" xmlns:xlink="http://www.w3.org/1999/xlink" version="1.1" id="Layer_1" x="0px" y="0px" viewBox="0 0 222.6 106.6" xml:space="preserve"> <g> <defs> <rect id="SVGID_1_" width="222.6" height="106.6"/> </defs> <clipPath id="SVGID_2_"> <use xlink:href="#SVGID_1_" overflow="visible"/> </clipPath> <path clip-path="url(#SVGID_2_)" fill="#E31837" d="M183.3,96.6c0-0.9-0.2-1.6-0.6-2.1c-0.4-0.5-0.9-0.7-1.5-0.7 c-0.6,0-1.1,0.2-1.5,0.7c-0.4,0.5-0.6,1.2-0.6,2.1c0,0.8,0.2,1.5,0.6,2c0.4,0.5,0.9,0.8,1.6,0.8c0.6,0,1.1-0.2,1.5-0.7 C183.1,98.3,183.3,97.6,183.3,96.6 M181.2,104.2v2.4H174v-2.4h1.8V93.7h-1.5v-2.4h4.8v1.3c0.9-1,2-1.5,3.1-1.5 c1.4,0,2.5,0.6,3.3,1.7c0.8,1.1,1.2,2.4,1.2,3.9c0,1.6-0.4,2.9-1.2,3.9c-0.8,1-1.9,1.5-3.3,1.5c-1.1,0-2.2-0.4-3.1-1.3v3.4H181.2z"/> <path clip-path="url(#SVGID_2_)" fill="#E31837" d="M208.9,99.4v2.4h-5.1V101c-1,0.7-2,1.1-3.1,1.1c-1,0-1.8-0.3-2.4-0.9 c-0.6-0.6-0.9-1.4-0.9-2.4v-5h-1.6v-2.4h4.9v6.6c0,0.5,0.1,0.9,0.2,1.1c0.2,0.2,0.5,0.3,0.9,0.3c0.6,0,1.2-0.3,1.9-0.8v-4.7h-1.6 v-2.4h5v8.1H208.9z"/> <path clip-path="url(#SVGID_2_)" fill="#E31837" d="M210.7,101.9v-3.6h2.5c0,0.5,0.3,0.9,0.7,1.2c0.4,0.3,1,0.4,1.6,0.4 c0.6,0,1-0.1,1.3-0.3c0.3-0.2,0.5-0.4,0.5-0.7c0-0.3-0.1-0.5-0.4-0.6c-0.3-0.2-0.8-0.3-1.7-0.4c-1.7-0.3-2.9-0.7-3.7-1.3 c-0.8-0.6-1.1-1.3-1.1-2.2c0-0.9,0.4-1.6,1.1-2.2c0.7-0.6,1.7-0.9,2.8-0.9c1,0,1.8,0.2,2.7,0.5v-0.4h2.4v3.1h-2.4 c-0.2-0.7-1-1.1-2.3-1.1c-1,0-1.5,0.3-1.5,0.8c0,0.2,0.1,0.4,0.3,0.5c0.2,0.1,0.7,0.2,1.5,0.4c1.3,0.2,2.3,0.4,2.9,0.7 c0.6,0.2,1.2,0.6,1.6,1.1c0.4,0.5,0.6,1.1,0.6,1.9c0,1-0.4,1.9-1.1,2.5c-0.7,0.7-1.8,1-3.1,1c-1.3,0-2.1-0.3-2.6-0.8v0.5H210.7z"/> <path clip-path="url(#SVGID_2_)" d="M80.4,70.7c0-1.9-0.4-3.3-1.2-4.4c-0.8-1.1-2-1.6-3.4-1.6c-1.5,0-2.6,0.6-3.3,1.7 c-0.8,1.1-1.2,2.5-1.2,4.3c0,1.7,0.4,3.2,1.2,4.3c0.8,1.1,1.9,1.7,3.3,1.7c1.3,0,2.4-0.5,3.3-1.5C79.9,74,80.4,72.6,80.4,70.7 M91.5,59.1v5.3h-3.8v17c0,7.6-4,11.4-12,11.4c-4.6,0-8-0.8-10.3-2.5l3.6-4.9c1.9,1.1,3.7,1.7,5.6,1.7c1.6,0,3-0.4,4.1-1.3 c1.1-0.8,1.7-2.5,1.7-4.9v-1.8c-2.4,2.1-4.7,3.2-7,3.2c-2.7,0-4.9-1.1-6.8-3.3c-1.9-2.2-2.8-5.1-2.8-8.5c0-3.5,1-6.3,2.9-8.5 c1.9-2.2,4.3-3.3,7.1-3.3c2.7,0,4.9,1.1,6.6,3.2v-2.8H91.5z"/> <path clip-path="url(#SVGID_2_)" d="M109.9,76.9v5.3H93.6v-5.3h4.3V64.4h-4v-5.3h10.7V65c0.4-1.7,1.4-3.1,2.8-4.4 c1.5-1.2,3.2-1.8,5.2-1.8c0.3,0,0.7,0,1.2,0v7c-1.9,0-3.4,0.2-4.5,0.6c-1.2,0.4-2.1,1.3-2.9,2.7c-0.8,1.4-1.1,3-1.1,5v2.8H109.9z"/> <path clip-path="url(#SVGID_2_)" d="M137,52.4c0,1-0.3,1.8-1,2.4c-0.7,0.7-1.5,1-2.4,1c-1,0-1.8-0.3-2.4-1c-0.7-0.7-1-1.5-1-2.5 c0-0.9,0.3-1.7,1-2.4c0.7-0.7,1.5-1,2.4-1c0.9,0,1.7,0.3,2.4,1C136.7,50.7,137,51.5,137,52.4 M128.1,77c1.4,0,2.5-0.5,3.3-1.6 c0.8-1,1.3-2.7,1.3-4.9c0-2-0.4-3.5-1.2-4.6c-0.8-1.1-1.9-1.7-3.4-1.7c-3,0-4.5,2.2-4.5,6.6c0,1.8,0.4,3.3,1.1,4.4 C125.5,76.4,126.6,77,128.1,77 M126.2,52.4c0,1-0.3,1.8-1,2.4c-0.7,0.7-1.5,1-2.4,1c-1,0-1.8-0.3-2.4-1c-0.7-0.7-1-1.5-1-2.4 c0-0.9,0.3-1.7,1-2.4c0.7-0.7,1.5-1,2.4-1c0.9,0,1.7,0.3,2.4,1C125.9,50.7,126.2,51.5,126.2,52.4 M128.2,82.7 c-3.4,0-6.3-1.1-8.6-3.2c-2.3-2.2-3.5-5.1-3.5-8.8c0-3.7,1.2-6.7,3.5-8.8c2.3-2.1,5.2-3.2,8.6-3.2c3.4,0,6.3,1.1,8.6,3.2 c2.3,2.2,3.5,5.1,3.5,8.8c0,3.7-1.2,6.6-3.5,8.8C134.5,81.6,131.6,82.7,128.2,82.7"/> <path clip-path="url(#SVGID_2_)" d="M163.2,70.5c0-2-0.4-3.5-1.2-4.5c-0.8-1-1.9-1.5-3.2-1.5c-1.3,0-2.4,0.5-3.3,1.5 c-0.9,1-1.4,2.6-1.4,4.8c0,1.9,0.4,3.3,1.3,4.4c0.8,1.1,1.9,1.6,3.3,1.6c1.3,0,2.4-0.5,3.2-1.5C162.7,74.2,163.2,72.6,163.2,70.5 M154.2,49.1v12.7c1.8-2.1,4-3.2,6.5-3.2c3,0,5.4,1.1,7.2,3.4c1.8,2.2,2.8,5.1,2.8,8.6c0,3.7-0.9,6.7-2.8,8.8 c-1.9,2.1-4.2,3.2-7,3.2c-2.5,0-4.8-1-6.7-3v2.7h-11.4v-5.3h4V54.4h-4v-5.3H154.2z"/> <path clip-path="url(#SVGID_2_)" d="M191.5,68.1c-0.2-1.3-0.7-2.4-1.5-3.3c-0.8-0.9-2-1.4-3.4-1.4c-2.7,0-4.3,1.5-4.7,4.6H191.5z M192.9,75.2l5.7,1.8c-2.4,3.8-6.1,5.6-11.2,5.6c-4.1,0-7.2-1.1-9.5-3.2c-2.3-2.1-3.4-5-3.4-8.5c0-3.6,1.2-6.5,3.5-8.9 c2.3-2.4,5.3-3.6,9-3.6c2.6,0,4.9,0.7,6.8,2c1.9,1.3,3.3,3,4,5c0.7,2,1.1,4.2,1.1,6.6h-17.2c0.1,2.1,0.8,3.6,2,4.5 c1.2,0.9,2.5,1.3,3.8,1.3C189.4,77.9,191.1,77,192.9,75.2"/> <path clip-path="url(#SVGID_2_)" d="M218.1,76.9v5.3h-16.2v-5.3h4.3V64.4h-4v-5.3h10.7V65c0.4-1.7,1.4-3.1,2.8-4.4 c1.5-1.2,3.2-1.8,5.2-1.8c0.3,0,0.7,0,1.2,0v7c-1.9,0-3.4,0.2-4.5,0.6c-1.2,0.4-2.1,1.3-2.9,2.7c-0.8,1.4-1.1,3-1.1,5v2.8H218.1z"/> </g> <g> <defs> <rect id="SVGID_3_" y="37.4" width="33.4" height="32.2"/> </defs> <clipPath id="SVGID_4_"> <use xlink:href="#SVGID_3_" overflow="visible"/> </clipPath> <path clip-path="url(#SVGID_4_)" fill="#E31837" d="M59.9,22.1l-0.8-1.8L44.6,39.2l-0.1,0.1c-1.7,4.2-5.4,7.4-10,8.5 c-7.6,1.7-15.1-3.1-16.8-10.7C16,29.5,20.8,22,28.4,20.3c3.6-0.8,7.4-0.2,10.5,1.8l2,1.2l9-14.1l-2-1.3c-6.9-4.4-15.1-5.8-23.1-4 C8.1,7.7-2.4,24.2,1.4,40.8c3.7,16.6,20.2,27.1,36.8,23.4c16.6-3.7,27.1-20.2,23.4-36.8C61.2,25.5,60.6,23.8,59.9,22.1"/> </g> <g> <defs> <rect id="SVGID_5_" x="35.6" y="40.4" width="31.7" height="32.2"/> </defs> <clipPath id="SVGID_6_"> <use xlink:href="#SVGID_5_" overflow="visible"/> </clipPath> <path clip-path="url(#SVGID_6_)" fill="#E31837" d="M61.8,24.3L61,22.5L46.9,40.2l-0.5,1.4c-1.7,4.2-5.4,7.4-10,8.5 c-7.6,1.7-15.1-3.1-16.8-10.7c-1.7-7.6,3.1-15.1,10.7-16.8c3.6-0.8,7.4-0.2,10.5,1.8l2,1.2l9-14.1l-2-1.3c-6.9-4.4-15.1-5.8-23.1-4 C10,9.9-0.4,26.4,3.3,43C7,59.6,23.5,70.1,40.1,66.4c16.6-3.7,27.1-20.2,23.4-36.8C63.1,27.7,62.5,26,61.8,24.3"/> </g> <g> <defs> <rect id="SVGID_7_" x="35.3" y="0" width="33.8" height="38.4"/> </defs> <clipPath id="SVGID_8_"> <use xlink:href="#SVGID_7_" overflow="visible"/> </clipPath> <path clip-path="url(#SVGID_8_)" fill="#F7901E" d="M44.1,38.1c-3.6,0.8-7.3-1.5-8.1-5.1l-0.4-2c-0.8-3.6,1.5-7.3,5.1-8.1l25.1-5.6 L51,36.5L44.1,38.1z"/> <path clip-path="url(#SVGID_8_)" fill="#E31837" d="M66.6,19.1l-0.8-1.8L51.1,36.4L51,36.5C49.3,40.8,45.6,44,41,45 c-7.7,1.7-15.3-3.1-17-10.8c-1.7-7.7,3.1-15.3,10.8-17c3.7-0.8,7.4-0.2,10.6,1.8l2,1.3l9.1-14.3l-2-1.3c-7-4.4-15.3-5.8-23.3-4 C14.3,4.5,3.7,21.2,7.5,38c3.7,16.8,20.4,27.4,37.2,23.6C61.4,57.8,72,41.1,68.3,24.4C67.9,22.6,67.3,20.8,66.6,19.1"/> </g> <g> <defs> <path id="SVGID_9_" d="M36.2,25.8c-3.6,0.8-5.9,4.4-5.1,8l0.4,2c0.8,3.6,4.4,5.9,8,5.1l6.9-1.5L61,20.3L36.2,25.8z"/> </defs> <clipPath id="SVGID_10_"> <use xlink:href="#SVGID_9_" overflow="visible"/> </clipPath> <g clip-path="url(#SVGID_10_)"> <defs> <polygon id="SVGID_11_" points="30,31.2 27.6,35.4 1.6,35.4 1.6,3.2 33.4,3.2 33.4,25.8 "/> </defs> <clipPath id="SVGID_12_"> <use xlink:href="#SVGID_11_" overflow="visible"/> </clipPath> <polygon clip-path="url(#SVGID_12_)" fill="#FDC489" points="30.3,29 33.1,41.7 32.9,41.7 30.3,30.2 "/> <polygon clip-path="url(#SVGID_12_)" fill="#FDC487" points="30.3,27.9 33.4,41.7 33.1,41.7 30.3,29 "/> <polygon clip-path="url(#SVGID_12_)" fill="#FCC286" points="30.3,26.7 33.6,41.7 33.4,41.7 30.3,27.9 "/> <polygon clip-path="url(#SVGID_12_)" fill="#FCC286" points="30.3,25.5 33.9,41.7 33.6,41.7 30.3,26.7 "/> <polygon clip-path="url(#SVGID_12_)" fill="#FDC285" points="30.3,24.4 34.2,41.7 33.9,41.7 30.3,25.5 "/> <polygon clip-path="url(#SVGID_12_)" fill="#FDC285" points="30.3,23.2 34.4,41.7 34.2,41.7 30.3,24.4 "/> <polygon clip-path="url(#SVGID_12_)" fill="#FDC283" points="30.3,22.1 34.7,41.7 34.4,41.7 30.3,23.2 "/> <polygon clip-path="url(#SVGID_12_)" fill="#FCC083" points="30.3,20.9 34.9,41.7 34.7,41.7 30.3,22.1 "/> <polygon clip-path="url(#SVGID_12_)" fill="#FCC083" points="30.4,20.3 35.2,41.7 34.9,41.7 30.3,20.9 30.3,20.3 "/> <polygon clip-path="url(#SVGID_12_)" fill="#FCC081" points="30.7,20.3 35.5,41.7 35.2,41.7 30.4,20.3 "/> <polygon clip-path="url(#SVGID_12_)" fill="#FCC081" points="30.9,20.3 35.7,41.7 35.5,41.7 30.7,20.3 "/> <polygon clip-path="url(#SVGID_12_)" fill="#FCC07F" points="31.2,20.3 36,41.7 35.7,41.7 30.9,20.3 "/> <polygon clip-path="url(#SVGID_12_)" fill="#FCBE7E" points="31.5,20.3 36.2,41.7 36,41.7 31.2,20.3 "/> <polygon clip-path="url(#SVGID_12_)" fill="#FCBE7E" points="31.7,20.3 36.5,41.7 36.2,41.7 31.5,20.3 "/> <polygon clip-path="url(#SVGID_12_)" fill="#FCBE7D" points="32,20.3 36.8,41.7 36.5,41.7 31.7,20.3 "/> <polygon clip-path="url(#SVGID_12_)" fill="#FCBE7D" points="32.2,20.3 37,41.7 36.8,41.7 32,20.3 "/> <polygon clip-path="url(#SVGID_12_)" fill="#FCBD7B" points="32.5,20.3 37.3,41.7 37,41.7 32.2,20.3 "/> </g> </g> <g> <defs> <polygon id="SVGID_13_" points="1.6,3.2 1.6,35.4 27.6,35.4 30,31.2 33.4,25.8 33.4,3.2 "/> </defs> <clipPath id="SVGID_14_"> <use xlink:href="#SVGID_13_" overflow="visible"/> </clipPath> <path clip-path="url(#SVGID_14_)" fill="#E31837" d="M61.8,22.1L61,20.3L46.5,39.2l-0.1,0.1c-1.7,4.2-5.4,7.4-10,8.5 c-7.6,1.7-15.1-3.1-16.8-10.7c-1.7-7.6,3.1-15.1,10.7-16.8c3.6-0.8,7.4-0.2,10.5,1.8l2,1.2l9-14.1l-2-1.3c-6.9-4.4-15.1-5.8-23.1-4 C10,7.7-0.4,24.2,3.3,40.8C7,57.4,23.5,67.9,40.1,64.2c16.6-3.7,27.1-20.2,23.4-36.8C63.1,25.5,62.5,23.8,61.8,22.1"/> </g> <path fill="#E31837" d="M193.4,86c-1.1,0.3-2.2,0.6-3.4,0.7v12.8h-1.7v2.4h6.5v-2.4h-1.5V86z"/> <path d="M218.8,52.2h0.4c0.4,0,0.8-0.1,0.8-0.5c0-0.3-0.2-0.5-0.7-0.5c-0.2,0-0.3,0-0.4,0V52.2z M218.7,54H218v-3.3 c0.3,0,0.7-0.1,1.3-0.1c0.6,0,0.9,0.1,1.1,0.3c0.2,0.1,0.3,0.4,0.3,0.7c0,0.4-0.3,0.7-0.7,0.8v0c0.3,0.1,0.5,0.4,0.6,0.8 c0.1,0.5,0.2,0.7,0.2,0.8H220c-0.1-0.1-0.2-0.4-0.3-0.8c-0.1-0.3-0.3-0.5-0.7-0.5h-0.4V54z M216.7,52.3c0,1.5,1.1,2.6,2.6,2.6 c1.4,0,2.5-1.2,2.5-2.6c0-1.5-1.1-2.7-2.6-2.7C217.8,49.7,216.7,50.9,216.7,52.3 M222.6,52.3c0,1.9-1.5,3.3-3.4,3.3 c-1.9,0-3.4-1.5-3.4-3.3c0-1.9,1.5-3.3,3.4-3.3C221.2,49,222.6,50.5,222.6,52.3"/> </svg>